<svg id="Capa_1" data-name="Capa 1" xmlns="http://www.w3.org/2000/svg" xmlns:xlink="http://www.w3.org/1999/xlink" viewBox="0 0 783.82 773.65"><defs><style>.cls-1{filter:url(#Logo);}.cls-2{fill:url(#Degradado_sin_nombre_2);}.cls-3{fill:#fff;}</style><filter id="Logo"><feOffset dy="2.83" input="SourceAlpha"/><feGaussianBlur stdDeviation="11.34" result="blur"/><feFlood flood-color="#0c1220"/><feComposite operator="in" in2="blur"/><feComposite in="SourceGraphic"/></filter><linearGradient id="Degradado_sin_nombre_2" y1="387.09" x2="783.82" y2="387.09" gradientTransform="matrix(1, 0, 0, -1, 0, 773.91)" gradientUnits="userSpaceOnUse"><stop offset="0.6" stop-color="#0c1320"/><stop offset="0.87" stop-color="#79657a"/><stop offset="1" stop-color="#f7caca"/></linearGradient></defs><g id="Logo-2" data-name="Logo" class="cls-1"><ellipse class="cls-2" cx="391.91" cy="386.82" rx="391.91" ry="386.82"/><path class="cls-3" d="M305.23,479.19a99.26,99.26,0,0,1-39.4-7.79,94.83,94.83,0,0,1-31.51-21.92,101.45,101.45,0,0,1-20.88-33,117.39,117.39,0,0,1,0-82.36,101.66,101.66,0,0,1,20.88-32.95,94.8,94.8,0,0,1,31.51-21.91,99.09,99.09,0,0,1,39.4-7.8A103.06,103.06,0,0,1,341.45,278,76.93,76.93,0,0,1,371,297.69l-3.31,4.12c-8.85-9-18.53-15.44-29-19.12a100.75,100.75,0,0,0-33.46-5.59,91.59,91.59,0,0,0-37.05,7.5,89.65,89.65,0,0,0-29.86,20.89,97,97,0,0,0-19.76,31.18,109.63,109.63,0,0,0,0,77.36,96.91,96.91,0,0,0,19.76,31.18,89.5,89.5,0,0,0,29.86,20.89,91.59,91.59,0,0,0,37.05,7.5,97.38,97.38,0,0,0,33.46-5.73c10.5-3.83,20.18-10.3,29-19.27l3.31,4.12a78.86,78.86,0,0,1-29.58,19.85A99.89,99.89,0,0,1,305.23,479.19Z"/><path class="cls-3" d="M425.78,478.31V272.39h76.58c19.91,0,35.67,4.42,47.42,13.09s17.55,21.77,17.55,39c0,11.33-2.62,20.89-7.74,28.39A45.91,45.91,0,0,1,538,369.76c-9.27,3.68-19.77,5.59-31.8,5.59l4.7-3.82c14.93,0,27.37,2.06,37.19,6s17.28,10,22.25,17.79,7.47,17.51,7.47,29.13c0,17.2-5.81,30.59-17.28,39.86s-29,14-52.67,14Zm5.53-5.59H509c20.59,0,36.35-3.83,47.14-11.62s16.17-20,16.17-36.62-5.39-28.83-16.17-36.48S529.59,376.53,509,376.53H429.92v-5.59h73.55c18.38,0,32.76-4,43-11.77s15.34-19.41,15.34-34.71-5.11-26.91-15.34-34.71S521.85,278,503.47,278H431.31Z"/></g></svg>