<svg version="1.1" xmlns="http://www.w3.org/2000/svg" xmlns:xlink="http://www.w3.org/1999/xlink" x="0px" y="0px"
	 viewBox="0 0 24 24" style="enable-background:new 0 0 24 24;" className="whatsapp-logo" xml:space="preserve">
<style type="text/css">
	.st0{fill:#FFFFFF;}
	
</style>
<g id="Capa_2">
	<rect x="3.7" y="3.6" class="st0" width="16.8" height="16.3"/>
</g>
<g id="Capa_1">
	<path class="st1" d="M22,6.5c0-0.4,0-0.9-0.1-1.3c-0.1-0.4-0.2-0.7-0.4-1.1c-0.4-0.7-1-1.3-1.7-1.7c-0.3-0.2-0.7-0.3-1.1-0.4
		C18.3,2.1,17.9,2,17.5,2c-0.2,0-0.4,0-0.5,0L7.1,2C7,2,6.7,2,6.5,2c-0.4,0-0.9,0-1.3,0.1C4.9,2.2,4.5,2.3,4.2,2.5
		c-0.7,0.4-1.3,1-1.7,1.7C2.3,4.5,2.2,4.9,2.1,5.3C2.1,5.7,2,6.1,2,6.5C2,6.7,2,7,2,7.1l0,9.8c0,0.1,0,0.3,0,0.5
		c0,0.4,0,0.9,0.1,1.3c0.1,0.4,0.2,0.7,0.4,1.1c0.4,0.7,1,1.3,1.7,1.7c0.3,0.2,0.7,0.3,1.1,0.4C5.7,21.9,6.1,22,6.5,22
		c0.2,0,0.4,0,0.5,0l9.8,0c0.1,0,0.3,0,0.5,0c0.4,0,0.9,0,1.3-0.1c0.4-0.1,0.7-0.2,1.1-0.4c0.7-0.4,1.3-1,1.7-1.7
		c0.2-0.3,0.3-0.7,0.4-1.1c0.1-0.4,0.1-0.9,0.1-1.3c0-0.2,0-0.4,0-0.5l0-9.8C22,7,22,6.7,22,6.5z M12.2,19L12.2,19
		c-1.2,0-2.4-0.3-3.4-0.9l-3.8,1l1-3.7c-0.8-1.4-1.1-2.9-0.9-4.5c0.2-1.6,0.9-3,2-4.1s2.6-1.8,4.1-2c1.6-0.2,3.1,0.1,4.5,0.9
		c1.4,0.8,2.4,2,3,3.4c0.6,1.5,0.7,3.1,0.3,4.6c-0.4,1.5-1.3,2.9-2.5,3.8C15.3,18.4,13.8,19,12.2,19z"/>
	<path class="st1" d="M12.2,5.9c-1.1,0-2.1,0.3-3,0.8C8.3,7.3,7.5,8,7,9c-0.5,0.9-0.8,2-0.7,3c0,1.1,0.3,2.1,0.9,3l0.1,0.2l-0.6,2.2
		L9,16.8l0.2,0.1c0.9,0.5,2,0.8,3,0.8h0c1.6,0,3.1-0.6,4.2-1.7c1.1-1.1,1.7-2.6,1.7-4.2c0-1.6-0.6-3.1-1.7-4.2
		C15.3,6.5,13.8,5.9,12.2,5.9L12.2,5.9z M15.7,14.4c-0.1,0.2-0.3,0.4-0.5,0.5c-0.2,0.1-0.4,0.2-0.7,0.3c-0.4,0.1-0.8,0-1.1-0.1
		c-0.3-0.1-0.7-0.2-1-0.4c-1.2-0.6-2.3-1.5-3-2.7c-0.4-0.5-0.7-1.2-0.7-1.8c0-0.3,0-0.6,0.2-0.8C8.9,9.2,9,8.9,9.2,8.8
		c0.1-0.1,0.1-0.1,0.2-0.2c0.1,0,0.2-0.1,0.3-0.1c0.1,0,0.2,0,0.3,0c0.1,0,0.3,0,0.4,0.3c0.1,0.4,0.5,1.2,0.6,1.3c0,0,0,0.1,0,0.2
		s0,0.1,0,0.2c0,0.1-0.1,0.2-0.2,0.3c-0.1,0.1-0.2,0.2-0.3,0.3c-0.1,0.1-0.2,0.2-0.1,0.4c0.3,0.5,0.6,0.9,1,1.2
		c0.4,0.4,0.9,0.7,1.4,0.9c0.2,0.1,0.3,0.1,0.4,0s0.4-0.5,0.6-0.7c0.1-0.2,0.2-0.1,0.4-0.1c0.2,0.1,1,0.5,1.2,0.6s0.3,0.1,0.3,0.2
		C15.9,13.8,15.8,14.1,15.7,14.4z"/>
</g>
</svg>
